<svg width="225" height="75" viewBox="0 0 225 75" fill="none" xmlns="http://www.w3.org/2000/svg">
<g clip-path="url(#clip0_11_2661)">
<g filter="url(#filter0_b_11_2661)">
<path d="M14.5899 73.959C14.0094 73.959 13.4429 73.9515 12.867 73.9384C11.6738 73.9226 10.4834 73.8176 9.30562 73.6241C8.20737 73.4327 7.14346 73.0769 6.14898 72.5682C5.16362 72.0638 4.26489 71.4023 3.48723 70.6091C2.6983 69.8253 2.04149 68.9163 1.54281 67.918C1.03864 66.9132 0.689726 65.8361 0.508218 64.7244C0.312206 63.5298 0.206155 62.3219 0.19098 61.1111C0.1789 60.7047 0.163086 59.3515 0.163086 59.3515V14.8348C0.163086 14.8348 0.179929 13.5024 0.191075 13.1109C0.205605 11.902 0.311039 10.696 0.506465 9.50331C0.688308 8.38853 1.03749 7.3084 1.54194 6.3003C2.03878 5.30268 2.69195 4.39293 3.47612 3.60634C4.25941 2.81227 5.16101 2.14739 6.14804 1.63595C7.14024 1.1289 8.20214 0.775552 9.29817 0.587734C10.4799 0.392262 11.6744 0.286581 12.8716 0.271577L14.5909 0.248047H210.399L212.139 0.272521C213.325 0.28678 214.509 0.391518 215.68 0.585845C216.787 0.77602 217.86 1.13184 218.864 1.6416C220.841 2.67229 222.45 4.30294 223.465 6.30501C223.961 7.30614 224.305 8.37746 224.485 9.48261C224.682 10.6851 224.793 11.9006 224.816 13.1194C224.821 13.6652 224.821 14.2514 224.821 14.8348C224.836 15.5575 224.836 16.2453 224.836 16.9388V57.2701C224.836 57.9702 224.836 58.6533 224.821 59.3421C224.821 59.9687 224.821 60.5428 224.814 61.1337C224.792 62.3307 224.683 63.5245 224.488 64.7055C224.31 65.8253 223.963 66.9107 223.459 67.9237C222.957 68.9112 222.304 69.8124 221.524 70.5941C220.746 71.3915 219.846 72.0568 218.858 72.5646C217.857 73.0771 216.786 73.4343 215.68 73.6241C214.502 73.8186 213.312 73.9237 212.118 73.9384C211.56 73.9515 210.976 73.959 210.409 73.959L208.343 73.9628L14.5899 73.959Z" fill="#F4F4F4" fill-opacity="0.2"/>
<path d="M12.8735 73.4384L12.8783 73.4385C13.4511 73.4515 14.0138 73.459 14.5899 73.459L208.342 73.4628H208.343L210.408 73.459H210.409C210.972 73.459 211.552 73.4515 212.107 73.4385L212.112 73.4384C213.28 73.424 214.445 73.3212 215.598 73.1309C216.652 72.9496 217.675 72.6089 218.629 72.1199L12.8735 73.4384ZM12.8735 73.4384C11.7062 73.423 10.5415 73.3203 9.38912 73.1311M12.8735 73.4384L9.38912 73.1311M9.38912 73.1311C8.34119 72.9483 7.32589 72.6086 6.37667 72.1231C5.43943 71.6432 4.58434 71.0139 3.84428 70.2591L3.83962 70.2544C3.0894 69.5091 2.46459 68.6444 1.99011 67.6945L1.98971 67.6937C1.50829 66.7343 1.17505 65.7057 1.00168 64.6438L1.00162 64.6434C0.809662 63.4736 0.705802 62.2906 0.690941 61.1049H0.691015L0.690759 61.0963C0.684861 60.8978 0.677936 60.4623 0.672454 60.0719C0.669727 59.8777 0.667376 59.6961 0.665706 59.563L0.663753 59.4044L0.663231 59.3609L0.663097 59.3495L0.663086 59.3486V14.838L0.663094 14.8373L0.663237 14.8261L0.663789 14.7833L0.665847 14.6272C0.667598 14.4963 0.670049 14.3177 0.672847 14.127C0.678469 13.7437 0.68542 13.3167 0.690873 13.1252L0.69094 13.1252L0.691039 13.117C0.705268 11.9331 0.808516 10.7521 0.999886 9.58416L0.999943 9.5838C1.17368 8.51874 1.50727 7.48691 1.98908 6.52405L1.9895 6.5232C2.46247 5.57352 3.08413 4.70774 3.83022 3.95934L3.83022 3.95935L3.83208 3.95746C4.57832 3.20095 5.43703 2.56767 6.37683 2.08054C7.32331 1.59701 8.33605 1.26004 9.38119 1.0808C10.5375 0.889593 11.7063 0.786219 12.8779 0.771538L12.8785 0.77153L14.5943 0.748047H210.396H210.399L212.132 0.772472L212.133 0.772485C213.294 0.786433 214.451 0.888851 215.597 1.07887C216.653 1.26045 217.677 1.59988 218.635 2.0861C220.517 3.06792 222.05 4.62105 223.018 6.52902C223.492 7.48475 223.82 8.50756 223.991 9.56279L223.991 9.56375C224.185 10.7418 224.293 11.9326 224.316 13.1266C224.316 13.1273 224.316 13.128 224.316 13.1287L224.816 13.1194M9.38912 73.1311L218.63 72.1195C219.569 71.6366 220.426 71.0036 221.167 70.2448L221.17 70.241C221.913 69.497 222.534 68.6392 223.013 67.699C223.494 66.7321 223.825 65.6961 223.994 64.6271L223.995 64.6242C224.185 63.4675 224.292 62.2982 224.314 61.1257C224.314 61.1252 224.314 61.1248 224.314 61.1244L224.814 61.1337M224.816 13.1194C224.821 13.6652 224.821 14.2514 224.821 14.8348C224.836 15.5575 224.836 16.2453 224.836 16.9388V57.2701C224.836 57.9702 224.836 58.6533 224.821 59.3421C224.821 59.9687 224.821 60.5428 224.814 61.1337M224.816 13.1194C224.793 11.9006 224.682 10.6851 224.485 9.48261L224.816 13.1194ZM224.814 61.1337C224.792 62.3307 224.683 63.5245 224.488 64.7055L224.814 61.1337Z" stroke="white"/>
</g>
<path d="M46.1267 36.8924C46.148 35.2197 46.5873 33.5797 47.4037 32.1249C48.22 30.6701 49.387 29.4478 50.7959 28.5718C49.9009 27.2789 48.7201 26.2149 47.3473 25.4643C45.9746 24.7137 44.4478 24.2972 42.888 24.2479C39.5609 23.8946 36.3353 26.2615 34.6398 26.2615C32.9116 26.2615 30.3011 24.2829 27.4901 24.3414C25.6719 24.4008 23.8999 24.9356 22.3467 25.8936C20.7936 26.8516 19.5123 28.2002 18.6277 29.808C14.7959 36.5181 17.6541 46.3797 21.3247 51.8037C23.1612 54.4597 25.3076 57.4264 28.1161 57.3212C30.8643 57.2059 31.8907 55.5488 35.2081 55.5488C38.4947 55.5488 39.4577 57.3212 42.3231 57.2543C45.2722 57.2059 47.1301 54.5866 48.9023 51.9055C50.2218 50.013 51.2372 47.9214 51.9108 45.7082C50.1975 44.9753 48.7354 43.7485 47.7068 42.1808C46.6783 40.6131 46.1287 38.7738 46.1267 36.8924Z" fill="white"/>
<path d="M40.7145 20.6797C42.3225 18.7274 43.1146 16.2181 42.9228 13.6846C40.4663 13.9455 38.1971 15.133 36.5675 17.0104C35.7707 17.9275 35.1604 18.9945 34.7716 20.1503C34.3828 21.3062 34.223 22.5282 34.3014 23.7465C35.5301 23.7593 36.7456 23.4899 37.8565 22.9587C38.9674 22.4275 39.9446 21.6482 40.7145 20.6797Z" fill="white"/>
<path d="M79.0992 43.8598H70.0805L67.9147 50.328H64.0947L72.6371 26.3975H76.6059L85.1483 50.328H81.2632L79.0992 43.8598ZM71.0146 40.8751H78.1634L74.6392 30.3778H74.5406L71.0146 40.8751Z" fill="white"/>
<path d="M103.597 41.6057C103.597 47.0275 100.727 50.5109 96.3976 50.5109C95.3007 50.5689 94.2099 50.3134 93.25 49.7735C92.2901 49.2337 91.5 48.4313 90.97 47.4584H90.888V56.1002H87.3472V32.8811H90.7745V35.783H90.8397C91.394 34.8147 92.1976 34.0165 93.1648 33.4734C94.132 32.9302 95.2267 32.6625 96.3324 32.6985C100.711 32.6985 103.597 36.1989 103.597 41.6057ZM99.957 41.6057C99.957 38.0733 98.1522 35.751 95.3984 35.751C92.6929 35.751 90.8732 38.1222 90.8732 41.6057C90.8732 45.1211 92.6929 47.4754 95.3984 47.4754C98.1522 47.4754 99.9569 45.17 99.9569 41.6057H99.957Z" fill="white"/>
<path d="M122.587 41.6057C122.587 47.0275 119.717 50.5109 115.387 50.5109C114.29 50.5689 113.199 50.3134 112.24 49.7735C111.28 49.2337 110.489 48.4313 109.959 47.4584H109.878V56.1002H106.337V32.8811H109.764V35.783H109.829C110.384 34.8147 111.187 34.0165 112.154 33.4734C113.121 32.9302 114.216 32.6625 115.322 32.6985C119.7 32.6985 122.587 36.1989 122.587 41.6057ZM118.947 41.6057C118.947 38.0733 117.142 35.751 114.388 35.751C111.682 35.751 109.863 38.1222 109.863 41.6057C109.863 45.1211 111.682 47.4754 114.388 47.4754C117.142 47.4754 118.947 45.17 118.947 41.6057Z" fill="white"/>
<path d="M135.13 43.6609C135.392 46.034 137.672 47.5922 140.787 47.5922C143.771 47.5922 145.918 46.034 145.918 43.8942C145.918 42.0367 144.623 40.9246 141.557 40.1624L138.49 39.4152C134.146 38.3538 132.129 36.2988 132.129 32.964C132.129 28.8351 135.686 25.999 140.736 25.999C145.738 25.999 149.165 28.8351 149.281 32.964H145.706C145.492 30.5758 143.54 29.1343 140.688 29.1343C137.835 29.1343 135.884 30.5928 135.884 32.7156C135.884 34.4074 137.13 35.403 140.18 36.1651L142.787 36.8125C147.641 37.9736 149.656 39.9459 149.656 43.4462C149.656 47.9233 146.132 50.7274 140.524 50.7274C135.277 50.7274 131.734 47.9892 131.505 43.6607L135.13 43.6609Z" fill="white"/>
<path d="M157.301 28.7539V32.8828H160.582V35.7189H157.301V45.3374C157.301 46.8316 157.958 47.5279 159.4 47.5279C159.79 47.5211 160.179 47.4934 160.565 47.4451V50.2642C159.917 50.3867 159.258 50.4422 158.598 50.4298C155.106 50.4298 153.744 49.103 153.744 45.7193V35.7189H151.236V32.8828H153.744V28.7539H157.301Z" fill="white"/>
<path d="M162.478 41.6071C162.478 36.1175 165.674 32.668 170.659 32.668C175.661 32.668 178.842 36.1174 178.842 41.6071C178.842 47.1117 175.677 50.5462 170.659 50.5462C165.643 50.5462 162.478 47.1117 162.478 41.6071ZM175.235 41.6071C175.235 37.8414 173.528 35.6188 170.659 35.6188C167.79 35.6188 166.084 37.8583 166.084 41.6071C166.084 45.3878 167.79 47.5935 170.659 47.5935C173.528 47.5935 175.235 45.3878 175.235 41.6071H175.235Z" fill="white"/>
<path d="M181.766 32.8809H185.143V35.8506H185.225C185.454 34.9231 185.991 34.1034 186.747 33.5294C187.502 32.9553 188.43 32.6619 189.375 32.6983C189.783 32.6969 190.189 32.7417 190.588 32.832V36.1818C190.073 36.0226 189.535 35.9495 188.997 35.9654C188.482 35.9443 187.969 36.036 187.493 36.2343C187.017 36.4325 186.589 36.7326 186.239 37.114C185.888 37.4953 185.624 37.9489 185.463 38.4435C185.302 38.9382 185.249 39.4621 185.307 39.9795V50.3281H181.766L181.766 32.8809Z" fill="white"/>
<path d="M206.913 45.2053C206.437 48.3726 203.387 50.5462 199.486 50.5462C194.467 50.5462 191.353 47.1455 191.353 41.6899C191.353 36.2173 194.484 32.668 199.337 32.668C204.109 32.668 207.111 35.9839 207.111 41.274V42.501H194.927V42.7174C194.871 43.3595 194.95 44.0064 195.16 44.615C195.37 45.2237 195.706 45.7802 196.144 46.2476C196.583 46.715 197.116 47.0826 197.706 47.326C198.296 47.5694 198.931 47.683 199.567 47.6593C200.404 47.7386 201.244 47.5426 201.962 47.1004C202.679 46.6583 203.237 45.9936 203.551 45.2053L206.913 45.2053ZM194.944 39.998H203.568C203.6 39.4207 203.513 38.8429 203.314 38.301C203.114 37.7591 202.806 37.2647 202.409 36.8489C202.012 36.4331 201.534 36.1049 201.005 35.8848C200.476 35.6647 199.908 35.5575 199.337 35.5699C198.76 35.5664 198.188 35.6785 197.655 35.8996C197.121 36.1207 196.636 36.4465 196.228 36.8582C195.82 37.2699 195.496 37.7593 195.275 38.2982C195.055 38.8371 194.942 39.4148 194.944 39.9981V39.998Z" fill="white"/>
</g>
<defs>
<filter id="filter0_b_11_2661" x="-3.83691" y="-3.75195" width="232.673" height="81.7148" filterUnits="userSpaceOnUse" color-interpolation-filters="sRGB">
<feFlood flood-opacity="0" result="BackgroundImageFix"/>
<feGaussianBlur in="BackgroundImageFix" stdDeviation="2"/>
<feComposite in2="SourceAlpha" operator="in" result="effect1_backgroundBlur_11_2661"/>
<feBlend mode="normal" in="SourceGraphic" in2="effect1_backgroundBlur_11_2661" result="shape"/>
</filter>
<clipPath id="clip0_11_2661">
<rect width="225" height="74" fill="white" transform="translate(0 0.103516)"/>
</clipPath>
</defs>
</svg>
