<svg width="140" height="141" viewBox="0 0 140 141" fill="none" xmlns="http://www.w3.org/2000/svg">
<rect width="140" height="140" rx="8" fill="#E9E9E9"/>
<path fill-rule="evenodd" clip-rule="evenodd" d="M109.3 47.0406C114.773 67.2087 121.906 112.542 114.628 119.653H68.5824C68.5777 119.571 68.5731 119.49 68.5685 119.409C51.5021 117.52 38.2285 103.05 38.2285 85.4803V52.1371C38.2285 33.2837 53.5122 18 72.3656 18H75.5411C92.6626 18 106.84 30.6046 109.3 47.0406Z" fill="#3D3D3D"/>
<path fill-rule="evenodd" clip-rule="evenodd" d="M56.1105 79.113C48.7942 70.5252 43.8424 60.0006 44.6699 48.2076C47.054 14.2285 94.354 21.7035 103.555 38.8532C112.756 56.0029 111.662 99.5046 99.7711 102.57C95.0289 103.792 84.9266 100.798 74.6448 94.6004L81.0985 140.258H42.9919L56.1105 79.113Z" fill="#FFBDA9"/>
<path fill-rule="evenodd" clip-rule="evenodd" d="M66.4117 73.3734C68.1674 92.2329 67.464 113.77 62.2316 118.883H16.1862C13.6207 74.308 38.415 91.5693 38.415 49.6012C39.9608 48.0908 41.4215 46.5959 42.8669 45.3067L42.8157 44.0724C50.789 27.7494 60.9044 19.5879 73.162 19.5879C91.5485 19.5879 97.352 28.1433 102.293 35.407C98.5983 48.0855 84.259 49.9654 71.5176 57.8683C70.0158 56.6481 68.1007 55.9168 66.0148 55.9168C61.1918 55.9168 57.2821 59.8265 57.2821 64.6495C57.2821 69.4725 61.1918 73.3823 66.0148 73.3823C66.1478 73.3823 66.2801 73.3793 66.4117 73.3734Z" fill="#3D3D3D"/>
</svg>
