<svg width="20" height="20" viewBox="0 0 20 20" fill="none" xmlns="http://www.w3.org/2000/svg">
<g id="Iconly/Light/Buy">
<g id="Buy">
<path id="Stroke 1" d="M2.29199 2.70801L4.02533 3.00801L4.74358 12.4747C4.80775 13.2555 5.46025 13.8547 6.24358 13.8522H15.3344C16.0819 13.8538 16.7161 13.3038 16.8219 12.5638L17.6127 7.09884C17.7011 6.48801 17.2769 5.92134 16.6669 5.83301C16.6136 5.82551 4.23966 5.83301 4.23966 5.83301" stroke="#C4C4C4" stroke-linecap="round" stroke-linejoin="round"/>
<path id="Stroke 3" d="M11.771 8.99528H14.0818" stroke="#C4C4C4" stroke-linecap="round" stroke-linejoin="round"/>
<path id="Stroke 5" fill-rule="evenodd" clip-rule="evenodd" d="M5.96212 16.835C6.21296 16.835 6.41546 17.0383 6.41546 17.2883C6.41546 17.5391 6.21296 17.7425 5.96212 17.7425C5.71129 17.7425 5.50879 17.5391 5.50879 17.2883C5.50879 17.0383 5.71129 16.835 5.96212 16.835Z" fill="#C4C4C4" stroke="#C4C4C4" stroke-linecap="round" stroke-linejoin="round"/>
<path id="Stroke 7" fill-rule="evenodd" clip-rule="evenodd" d="M15.3625 16.835C15.6133 16.835 15.8167 17.0383 15.8167 17.2883C15.8167 17.5391 15.6133 17.7425 15.3625 17.7425C15.1117 17.7425 14.9092 17.5391 14.9092 17.2883C14.9092 17.0383 15.1117 16.835 15.3625 16.835Z" fill="#C4C4C4" stroke="#C4C4C4" stroke-linecap="round" stroke-linejoin="round"/>
</g>
</g>
</svg>
