<svg width="200" height="200" viewBox="0 0 200 200" fill="none" xmlns="http://www.w3.org/2000/svg">
<path d="M22.9175 27.0825L40.2508 30.0825L47.4334 124.749C48.0751 132.558 54.6001 138.549 62.4334 138.524H153.342C160.817 138.541 167.158 133.041 168.217 125.641L176.125 70.9909C177.008 64.8825 172.767 59.2159 166.667 58.3325C166.133 58.2575 42.3942 58.3325 42.3942 58.3325" stroke="white" stroke-width="10" stroke-linecap="round" stroke-linejoin="round"/>
<path d="M117.709 89.9567H140.817" stroke="white" stroke-width="10" stroke-linecap="round" stroke-linejoin="round"/>
<path fill-rule="evenodd" clip-rule="evenodd" d="M59.6198 168.354C62.1281 168.354 64.1531 170.388 64.1531 172.888C64.1531 175.396 62.1281 177.429 59.6198 177.429C57.1114 177.429 55.0864 175.396 55.0864 172.888C55.0864 170.388 57.1114 168.354 59.6198 168.354Z" stroke="white" stroke-width="10" stroke-linecap="round" stroke-linejoin="round"/>
<path fill-rule="evenodd" clip-rule="evenodd" d="M153.623 168.354C156.131 168.354 158.164 170.388 158.164 172.888C158.164 175.396 156.131 177.429 153.623 177.429C151.114 177.429 149.089 175.396 149.089 172.888C149.089 170.388 151.114 168.354 153.623 168.354Z" stroke="white" stroke-width="10" stroke-linecap="round" stroke-linejoin="round"/>
</svg>
