<svg width="20" height="21" viewBox="0 0 20 21" fill="none" xmlns="http://www.w3.org/2000/svg">
<g id="Iconly/Light/Home">
<g id="Home">
<g id="Home_2">
<path fill-rule="evenodd" clip-rule="evenodd" d="M7.63118 17.8093V15.2537C7.63116 14.6037 8.16109 14.0755 8.81767 14.0712H11.2227C11.8824 14.0712 12.4173 14.6006 12.4173 15.2537V17.8173C12.4171 18.3692 12.862 18.8202 13.4194 18.8332H15.0227C16.6211 18.8332 17.9168 17.5504 17.9168 15.968V8.69803C17.9083 8.07553 17.6131 7.49096 17.1151 7.1107L11.6316 2.73759C10.6709 1.97614 9.30533 1.97614 8.34468 2.73759L2.88518 7.11863C2.38538 7.49736 2.08965 8.08289 2.0835 8.70597V15.968C2.0835 17.5504 3.37923 18.8332 4.97759 18.8332H6.58096C7.15212 18.8332 7.61514 18.3748 7.61514 17.8093" fill="#E52729"/>
<path d="M7.63118 17.8093V15.2537C7.63116 14.6037 8.16109 14.0755 8.81767 14.0712H11.2227C11.8824 14.0712 12.4173 14.6006 12.4173 15.2537V15.2537V17.8173C12.4171 18.3692 12.862 18.8202 13.4194 18.8332H15.0227C16.6211 18.8332 17.9168 17.5504 17.9168 15.968V15.968V8.69803C17.9083 8.07553 17.6131 7.49096 17.1151 7.1107L11.6316 2.73759C10.6709 1.97614 9.30533 1.97614 8.34468 2.73759L2.88518 7.11863C2.38538 7.49736 2.08965 8.08289 2.0835 8.70597V15.968C2.0835 17.5504 3.37923 18.8332 4.97759 18.8332H6.58096C7.15212 18.8332 7.61514 18.3748 7.61514 17.8093V17.8093" stroke="#E52729" stroke-linecap="round" stroke-linejoin="round"/>
</g>
</g>
</g>
</svg>
