<svg width="837" height="309" viewBox="0 0 837 309" fill="none" xmlns="http://www.w3.org/2000/svg">
<path fill-rule="evenodd" clip-rule="evenodd" d="M140.971 180.422C161.577 180.415 181.511 173.093 197.222 159.759C212.932 146.425 223.398 127.947 226.755 107.616C227.24 104.871 228.027 105.355 229.178 106.405C231.196 108.847 238.341 117.345 239.613 118.677C247.283 126.852 257.194 133.25 266.216 133.25C269.306 133.244 272.318 132.277 274.835 130.485C277.268 128.535 279.119 125.955 280.187 123.026C281.254 120.097 281.498 116.931 280.89 113.873C279.8 107.818 275.34 97.9876 275.34 93.4864C275.34 88.9852 279.8 79.1754 280.89 73.0998C281.495 70.0419 281.251 66.8766 280.183 63.9479C279.116 61.0191 277.266 58.439 274.835 56.4877C272.314 54.7039 269.305 53.7384 266.216 53.7224V53.7224C255.175 53.7224 242.782 63.3304 234.829 74.0081C234.534 74.4183 234.351 74.8984 234.298 75.401C234.245 75.9037 234.323 76.4115 234.527 76.8743C243.347 96.7563 255.559 110.785 266.176 112.521C266.706 112.605 267.214 112.794 267.672 113.075C268.129 113.356 268.526 113.725 268.841 114.16C269.156 114.595 269.382 115.087 269.507 115.609C269.631 116.132 269.652 116.673 269.567 117.204C269.482 117.734 269.294 118.242 269.012 118.699C268.731 119.157 268.363 119.554 267.928 119.869C267.493 120.184 267 120.41 266.478 120.534C265.956 120.659 265.414 120.679 264.884 120.595C251.623 118.435 238.462 104.023 228.895 84.0803C227.744 82.0465 226.914 79.8474 226.433 77.5606C222.662 57.4633 211.931 39.3376 196.122 26.3679C180.314 13.3982 160.441 6.41422 139.995 6.64315C119.549 6.87207 99.8372 14.2992 84.3234 27.6196C68.8097 40.94 58.4863 59.3015 55.1671 79.4782V79.4782C54.7029 82.2233 53.9157 81.7389 52.745 80.6691C50.7265 78.2267 43.6014 69.7491 42.3298 68.3967C34.6596 60.3228 24.7491 53.8233 15.7266 53.8233C12.6366 53.8301 9.62496 54.7964 7.10781 56.5886C4.67507 58.5384 2.824 61.1184 1.75628 64.0476C0.688556 66.9767 0.445117 70.1428 1.05246 73.2007C2.14242 79.2562 6.6032 89.1063 6.6032 93.5873C6.6032 98.0683 2.14242 107.898 1.05246 113.974C0.447404 117.032 0.69195 120.197 1.75951 123.126C2.82708 126.055 4.67683 128.635 7.10781 130.586C9.62914 132.37 12.6381 133.335 15.7266 133.351V133.351C26.7473 133.351 39.1608 123.764 47.0933 113.167C47.3963 112.76 47.5843 112.279 47.6375 111.775C47.6908 111.271 47.6074 110.761 47.396 110.3C38.5754 90.4183 26.384 76.3697 15.7669 74.6338C15.2368 74.549 14.7286 74.3606 14.2713 74.0794C13.814 73.7981 13.4165 73.4296 13.1016 72.9947C12.7867 72.5599 12.5606 72.0673 12.4361 71.545C12.3116 71.0228 12.2911 70.4811 12.376 69.951C12.4608 69.4208 12.6492 68.9126 12.9304 68.4553C13.2117 67.9979 13.5802 67.6005 14.0151 67.2856C14.4499 66.9707 14.9425 66.7446 15.4647 66.62C15.987 66.4955 16.5286 66.4751 17.0588 66.5599C30.32 68.7197 43.4803 83.1316 53.0477 103.074C54.1986 105.108 55.0291 107.307 55.5102 109.594V109.594C59.2763 129.505 69.8752 147.478 85.4776 160.408C101.08 173.339 120.707 180.418 140.971 180.422V180.422ZM81.8106 53.3793C81.8106 35.213 108.293 17.6724 140.971 17.6724C173.65 17.6724 200.132 35.2332 200.132 53.3793C200.132 71.5254 173.63 86.1997 140.971 86.1997C108.313 86.1997 81.8106 71.5052 81.8106 53.3793Z" fill="#E52729"/>
<path d="M344.896 69.5454V25.1389C344.896 24.9957 344.924 24.854 344.978 24.7218C345.033 24.5895 345.114 24.4693 345.215 24.3681C345.316 24.2669 345.436 24.1866 345.568 24.1319C345.701 24.0771 345.842 24.0489 345.985 24.0489H354.685C354.974 24.0489 355.251 24.1637 355.456 24.3681C355.66 24.5725 355.775 24.8498 355.775 25.1389V41.9124C355.772 42.1338 355.836 42.3508 355.96 42.5346C356.083 42.7184 356.26 42.8603 356.466 42.9414C356.672 43.0224 356.897 43.0389 357.113 42.9885C357.329 42.9381 357.524 42.8232 357.672 42.6592L374.91 24.392C375.009 24.2826 375.131 24.1954 375.267 24.1363C375.402 24.0771 375.549 24.0473 375.697 24.0489H385.446C385.658 24.0502 385.866 24.1134 386.042 24.2307C386.219 24.3481 386.358 24.5145 386.441 24.7095C386.525 24.9045 386.55 25.1197 386.513 25.3286C386.476 25.5375 386.379 25.7312 386.233 25.8857L367.845 45.3842C367.665 45.5873 367.566 45.8494 367.566 46.1209C367.566 46.3924 367.665 46.6546 367.845 46.8577L387.021 68.8187C387.155 68.977 387.242 69.1706 387.27 69.3766C387.299 69.5826 387.268 69.7924 387.181 69.9812C387.094 70.1701 386.954 70.3301 386.779 70.4424C386.604 70.5547 386.401 70.6147 386.193 70.6151H375.879C375.721 70.6162 375.565 70.5823 375.422 70.516C375.279 70.4497 375.152 70.3526 375.051 70.2316L357.733 50.0469C357.588 49.878 357.395 49.7574 357.18 49.7014C356.964 49.6453 356.737 49.6565 356.529 49.7334C356.32 49.8103 356.14 49.9493 356.012 50.1316C355.885 50.3139 355.816 50.5309 355.815 50.7533V69.4646C355.815 69.7537 355.7 70.0309 355.496 70.2353C355.292 70.4397 355.014 70.5546 354.725 70.5546H346.046C345.76 70.5713 345.479 70.4747 345.264 70.2858C345.049 70.097 344.916 69.831 344.896 69.5454Z" fill="#1D1D1B"/>
<path d="M392.151 47.3046C392.056 44.0146 392.641 40.7405 393.871 37.6874C395.1 34.6343 396.947 31.8681 399.296 29.5622C404.007 24.8459 410.398 22.1942 417.064 22.1904C423.73 22.1866 430.125 24.8311 434.841 29.542C439.557 34.253 442.209 40.6445 442.212 47.3105C442.216 53.9766 439.572 60.3711 434.861 65.0874C430.107 69.7244 423.729 72.3199 417.089 72.3199C410.448 72.3199 404.07 69.7244 399.316 65.0874C396.974 62.7669 395.131 59.9929 393.899 56.9352C392.667 53.8774 392.072 50.6003 392.151 47.3046ZM407.027 36.4048C404.442 39.4348 403.087 43.3244 403.232 47.3046C403.094 51.3392 404.543 55.267 407.269 58.2448C408.53 59.613 410.06 60.7051 411.764 61.452C413.468 62.199 415.309 62.5846 417.169 62.5846C419.03 62.5846 420.87 62.199 422.574 61.452C424.278 60.7051 425.809 59.613 427.07 58.2448C429.711 55.2256 431.104 51.3139 430.965 47.3046C431.079 43.3597 429.727 39.5127 427.171 36.5058C425.88 35.126 424.321 34.0243 422.589 33.268C420.857 32.5117 418.99 32.1167 417.1 32.1073C415.211 32.0978 413.339 32.4741 411.6 33.2131C409.861 33.952 408.291 35.0381 406.986 36.4048H407.027Z" fill="#1D1D1B"/>
<path d="M494.749 25.6627V69.1205C494.749 69.5434 494.581 69.9489 494.282 70.248C493.983 70.547 493.577 70.715 493.154 70.715H485.464C485.041 70.715 484.635 70.547 484.336 70.248C484.037 69.9489 483.869 69.5434 483.869 69.1205V52.5891C483.869 52.1609 483.699 51.7501 483.396 51.4473C483.093 51.1445 482.683 50.9743 482.255 50.9743H463.967C463.756 50.9743 463.547 51.0162 463.352 51.0976C463.158 51.179 462.981 51.2983 462.833 51.4485C462.684 51.5987 462.567 51.7769 462.488 51.9727C462.409 52.1685 462.37 52.378 462.373 52.5891V69.1205C462.373 69.3316 462.331 69.5406 462.249 69.7354C462.168 69.9302 462.049 70.1069 461.899 70.2552C461.748 70.4035 461.57 70.5206 461.374 70.5995C461.179 70.6784 460.969 70.7177 460.758 70.715H453.027C452.816 70.7177 452.607 70.6784 452.411 70.5995C452.215 70.5206 452.037 70.4035 451.887 70.2552C451.737 70.1069 451.617 69.9302 451.536 69.7354C451.454 69.5406 451.413 69.3316 451.413 69.1205V25.6627C451.413 25.4515 451.454 25.2425 451.536 25.0477C451.617 24.853 451.737 24.6763 451.887 24.5279C452.037 24.3796 452.215 24.2625 452.411 24.1836C452.607 24.1047 452.816 24.0654 453.027 24.068H460.697C460.909 24.0654 461.118 24.1047 461.314 24.1836C461.51 24.2625 461.688 24.3796 461.838 24.5279C461.988 24.6763 462.108 24.853 462.189 25.0477C462.27 25.2425 462.312 25.4515 462.312 25.6627V40.1553C462.312 40.5782 462.48 40.9838 462.779 41.2829C463.078 41.5819 463.484 41.7499 463.907 41.7499H482.194C482.405 41.7526 482.615 41.7133 482.81 41.6344C483.006 41.5554 483.184 41.4384 483.335 41.2901C483.485 41.1417 483.604 40.965 483.685 40.7702C483.767 40.5755 483.809 40.3664 483.809 40.1553V25.6627C483.809 25.2397 483.977 24.8342 484.276 24.5351C484.575 24.2361 484.98 24.068 485.403 24.068H493.094C493.308 24.0599 493.522 24.0951 493.722 24.1716C493.923 24.2481 494.106 24.3643 494.26 24.5132C494.415 24.6621 494.538 24.8406 494.622 25.0381C494.706 25.2356 494.749 25.4481 494.749 25.6627V25.6627Z" fill="#1D1D1B"/>
<path d="M535.599 28.7538H535.801V0.616211H546.499V28.7538H546.782C548.154 26.7755 550.009 25.1808 552.171 24.121C554.333 23.0613 556.73 22.5715 559.135 22.6983C561.71 22.6943 564.252 23.284 566.562 24.4218C568.872 25.5595 570.889 27.2146 572.456 29.2584C576.09 33.6452 577.906 39.7612 577.906 47.6063C578.19 53.9939 576.32 60.2917 572.598 65.49C571.017 67.6768 568.93 69.4474 566.515 70.6498C564.099 71.8522 561.428 72.4505 558.731 72.3932C556.278 72.4241 553.857 71.8412 551.686 70.6977C549.699 69.6694 548.01 68.1471 546.782 66.2772H546.499V93.6074H535.781V66.0754H535.579C534.023 68.1793 531.948 69.8433 529.556 70.9047C527.165 71.9661 524.538 72.3886 521.935 72.1308C519.352 71.8801 516.855 71.0671 514.62 69.7491C512.385 68.431 510.466 66.6397 508.996 64.501C505.718 59.3444 504.098 53.3076 504.354 47.2027C504.106 41.0904 505.849 35.0628 509.319 30.0254C511.522 27.092 514.541 24.8733 517.999 23.647C520.028 22.7839 522.228 22.3936 524.431 22.5055C526.634 22.6174 528.783 23.2286 530.715 24.2929C532.658 25.3927 534.328 26.9177 535.599 28.7538V28.7538ZM515.274 47.3238C515.079 51.3315 516.077 55.307 518.14 58.7483C518.949 60.0963 520.098 61.2071 521.473 61.969C522.848 62.7309 524.4 63.1169 525.971 63.0881C527.433 63.0548 528.864 62.6594 530.136 61.9373C531.408 61.2151 532.48 60.1888 533.258 58.9502C535.448 55.587 536.508 51.6134 536.286 47.6063C536.524 43.5369 535.525 39.4907 533.419 36.0001C532.594 34.7105 531.453 33.6534 530.104 32.9291C528.755 32.2047 527.243 31.8372 525.712 31.8615C524.181 31.8858 522.682 32.301 521.357 33.0677C520.031 33.8344 518.924 34.9273 518.14 36.2423C516.115 39.5662 515.118 43.4146 515.274 47.3036V47.3238ZM567.007 47.4247C567.168 43.2207 566.064 39.065 563.838 35.4955C563.238 34.5987 562.464 33.8312 561.563 33.2384C560.662 32.6456 559.651 32.2394 558.59 32.0439C556.792 31.6346 554.912 31.7845 553.202 32.4736C551.492 33.1626 550.034 34.3579 549.022 35.8992C547.121 39.418 546.126 43.3546 546.126 47.354C546.126 51.3535 547.121 55.2901 549.022 58.8089C549.814 60.127 550.936 61.2154 552.278 61.966C553.62 62.7166 555.135 63.1034 556.672 63.0881C558.219 63.1062 559.743 62.7095 561.085 61.9392C562.426 61.1689 563.537 60.0531 564.302 58.708C566.253 55.2714 567.191 51.3522 567.007 47.4045V47.4247Z" fill="#1D1D1B"/>
<path d="M607.938 22.4958C615.474 22.5766 621.26 25.0257 625.297 29.8431C629.322 34.6112 631.474 40.6809 631.352 46.9194C631.375 47.993 631.308 49.0666 631.15 50.1288H596.15C596.028 50.1287 595.906 50.1534 595.793 50.2016C595.68 50.2497 595.578 50.3203 595.493 50.4089C595.409 50.4976 595.343 50.6026 595.299 50.7175C595.256 50.8324 595.237 50.9548 595.242 51.0775C595.46 54.3432 596.901 57.4067 599.279 59.656C600.549 60.956 602.069 61.9843 603.749 62.6783C605.428 63.3723 607.231 63.7175 609.048 63.693C611.001 63.7361 612.936 63.3115 614.692 62.4548C616.448 61.598 617.973 60.3339 619.141 58.7679C619.22 58.6672 619.321 58.5858 619.436 58.5298C619.552 58.4739 619.678 58.4449 619.807 58.4449H629.172C629.324 58.4476 629.472 58.488 629.604 58.5625C629.735 58.6371 629.846 58.7433 629.927 58.8717C630.007 59 630.054 59.1464 630.063 59.2975C630.072 59.4486 630.044 59.5996 629.98 59.7368C628.243 63.1722 625.693 66.131 622.552 68.3556C618.565 71.0748 613.81 72.4406 608.988 72.2513C605.691 72.3555 602.408 71.7743 599.347 70.5443C596.286 69.3144 593.514 67.4625 591.205 65.1059C586.796 60.2665 584.307 53.9826 584.206 47.4363C584.106 40.8901 586.401 34.5328 590.66 29.5605C592.855 27.1993 595.537 25.3442 598.521 24.1242C601.504 22.9042 604.718 22.3486 607.938 22.4958ZM607.938 30.5697C606.325 30.5098 604.718 30.7816 603.214 31.3684C601.711 31.9552 600.344 32.8444 599.198 33.981C597.232 35.9045 595.919 38.3967 595.444 41.1062C595.423 41.2341 595.431 41.3649 595.466 41.4896C595.502 41.6142 595.564 41.7297 595.648 41.8277C595.733 41.9258 595.838 42.0042 595.956 42.0574C596.074 42.1106 596.203 42.1373 596.332 42.1356H619.464C619.592 42.1339 619.719 42.105 619.835 42.0507C619.952 41.9964 620.055 41.918 620.139 41.8207C620.223 41.7234 620.285 41.6094 620.322 41.4863C620.359 41.3631 620.369 41.2335 620.352 41.1062C619.89 38.366 618.56 35.8469 616.557 33.9204C615.399 32.8535 614.041 32.0261 612.562 31.4857C611.083 30.9453 609.511 30.7027 607.938 30.7716V30.5697Z" fill="#1D1D1B"/>
<path d="M672.026 25.1027V32.4701C672.026 32.7431 671.917 33.005 671.724 33.198C671.531 33.3911 671.269 33.4996 670.996 33.4996H660.419C660.146 33.4996 659.885 33.608 659.692 33.8011C659.499 33.9941 659.39 34.2559 659.39 34.529V69.6101C659.39 69.8831 659.282 70.145 659.089 70.338C658.896 70.5311 658.634 70.6395 658.361 70.6395H649.621C649.348 70.6395 649.086 70.5311 648.893 70.338C648.7 70.145 648.591 69.8831 648.591 69.6101V34.529C648.591 34.2559 648.483 33.9941 648.29 33.8011C648.097 33.608 647.835 33.4996 647.562 33.4996H636.884C636.611 33.4996 636.349 33.3911 636.156 33.198C635.963 33.005 635.855 32.7431 635.855 32.4701V25.1027C635.855 24.8297 635.963 24.5678 636.156 24.3748C636.349 24.1817 636.611 24.0732 636.884 24.0732H671.016C671.286 24.0785 671.543 24.1893 671.731 24.3818C671.92 24.5743 672.026 24.8331 672.026 25.1027V25.1027Z" fill="#1D1D1B"/>
<path d="M679.431 69.1199V25.5006C679.428 25.3117 679.463 25.1241 679.534 24.949C679.605 24.7739 679.711 24.6148 679.845 24.4812C679.978 24.3476 680.137 24.2421 680.312 24.1711C680.487 24.1 680.675 24.0648 680.864 24.0675H688.938C689.318 24.0675 689.682 24.2185 689.951 24.4873C690.22 24.756 690.371 25.1205 690.371 25.5006V41.0631C690.368 41.3521 690.453 41.6352 690.614 41.8752C690.775 42.1152 691.005 42.3008 691.274 42.4078C691.542 42.5147 691.837 42.538 692.119 42.4745C692.401 42.4111 692.657 42.2638 692.854 42.0521L709.405 24.5116C709.537 24.3712 709.697 24.2595 709.874 24.1831C710.051 24.1067 710.242 24.0674 710.434 24.0675H719.235C719.516 24.0593 719.794 24.1355 720.032 24.2864C720.27 24.4372 720.458 24.6558 720.571 24.9141C720.683 25.1723 720.716 25.4584 720.665 25.7356C720.614 26.0128 720.482 26.2683 720.284 26.4695L702.643 45.1808C702.382 45.4517 702.235 45.8135 702.235 46.19C702.235 46.5665 702.382 46.9283 702.643 47.1992L721.112 68.3529C721.297 68.557 721.418 68.8108 721.461 69.0829C721.504 69.3551 721.466 69.6338 721.352 69.8848C721.238 70.1357 721.054 70.348 720.821 70.4954C720.588 70.6428 720.317 70.7189 720.042 70.7145H710.616C710.411 70.7118 710.209 70.6674 710.021 70.5841C709.834 70.5009 709.665 70.3804 709.526 70.2301L692.934 50.8931C692.743 50.6689 692.487 50.5092 692.202 50.4357C691.917 50.3621 691.616 50.3783 691.34 50.482C691.064 50.5857 690.827 50.7719 690.661 51.0152C690.495 51.2585 690.407 51.5471 690.411 51.8418V69.1199C690.411 69.5 690.26 69.8645 689.991 70.1333C689.723 70.402 689.358 70.553 688.978 70.553H680.904C680.712 70.5613 680.52 70.5302 680.34 70.4616C680.16 70.3931 679.996 70.2885 679.858 70.1543C679.72 70.0201 679.611 69.8591 679.538 69.6812C679.464 69.5034 679.428 69.3124 679.431 69.1199V69.1199Z" fill="#1D1D1B"/>
<path d="M729.892 69.1258V25.6074C729.892 25.4043 729.932 25.2031 730.01 25.0157C730.089 24.8282 730.203 24.6582 730.348 24.5155C730.493 24.3728 730.664 24.2602 730.853 24.1843C731.041 24.1084 731.243 24.0707 731.446 24.0734H738.854C739.26 24.0734 739.651 24.235 739.938 24.5227C740.226 24.8104 740.388 25.2006 740.388 25.6074V41.9571C740.388 47.7299 740.388 52.4935 740.105 56.2479H740.307C742.261 52.951 744.404 49.7699 746.726 46.7207L763.075 24.6991C763.219 24.5031 763.408 24.3441 763.625 24.2353C763.843 24.1265 764.083 24.071 764.326 24.0734H771.613C771.816 24.0707 772.018 24.1084 772.206 24.1843C772.395 24.2602 772.566 24.3728 772.711 24.5155C772.855 24.6582 772.97 24.8282 773.049 25.0157C773.127 25.2031 773.167 25.4043 773.167 25.6074V69.1258C773.167 69.3289 773.127 69.5301 773.049 69.7175C772.97 69.905 772.855 70.075 772.711 70.2177C772.566 70.3604 772.395 70.473 772.206 70.5489C772.018 70.6248 771.816 70.6625 771.613 70.6598H764.205C763.798 70.6598 763.408 70.4982 763.121 70.2105C762.833 69.9228 762.671 69.5326 762.671 69.1258V52.877C762.671 47.1042 762.765 42.307 762.954 38.4853H762.772C761.723 40.3692 759.583 43.5449 756.354 48.0125L739.984 70.0341C739.842 70.2326 739.654 70.3935 739.436 70.5026C739.218 70.6116 738.976 70.6656 738.732 70.6598H731.446C731.243 70.6625 731.041 70.6248 730.853 70.5489C730.664 70.473 730.493 70.3604 730.348 70.2177C730.203 70.075 730.089 69.905 730.01 69.7175C729.932 69.5301 729.892 69.3289 729.892 69.1258V69.1258Z" fill="#1D1D1B"/>
<path d="M372.412 116.659C361.324 118.354 355.066 123.347 353.64 131.636H353.943C355.687 129.746 357.832 128.27 360.22 127.316C362.763 126.189 365.513 125.605 368.294 125.601C371.458 125.478 374.611 126.03 377.545 127.22C380.479 128.41 383.126 130.211 385.309 132.504C389.719 137.281 392.062 143.608 391.829 150.105C391.894 153.382 391.298 156.638 390.078 159.679C388.857 162.72 387.036 165.485 384.724 167.807C382.428 170.195 379.658 172.076 376.593 173.331C373.527 174.586 370.233 175.186 366.921 175.094C363.572 175.221 360.234 174.613 357.145 173.312C354.055 172.012 351.288 170.05 349.038 167.565C344.503 162.532 342.236 155.481 342.236 146.411C342.185 141.665 342.652 136.927 343.628 132.282C344.386 128.624 345.685 125.1 347.484 121.826C349.039 119.058 351.092 116.602 353.539 114.58C355.865 112.623 358.489 111.049 361.31 109.917C364.338 108.735 367.485 107.882 370.696 107.374C374.639 106.709 378.453 105.428 381.999 103.579C382.173 103.486 382.365 103.428 382.562 103.41C382.759 103.392 382.957 103.414 383.145 103.474C383.334 103.534 383.508 103.632 383.658 103.761C383.808 103.89 383.93 104.048 384.018 104.225L387.066 110.462C387.156 110.637 387.212 110.828 387.228 111.024C387.245 111.221 387.223 111.418 387.163 111.606C387.103 111.793 387.006 111.967 386.878 112.117C386.751 112.268 386.595 112.391 386.42 112.481C382.026 114.671 377.287 116.084 372.412 116.659V116.659ZM353.055 150.105C352.916 154.14 354.366 158.067 357.092 161.045C358.332 162.431 359.855 163.535 361.557 164.283C363.259 165.032 365.102 165.407 366.962 165.385C368.841 165.445 370.711 165.087 372.435 164.337C374.16 163.586 375.696 162.462 376.933 161.045C379.549 158.015 380.919 154.106 380.768 150.105C380.892 146.176 379.579 142.336 377.074 139.306C375.864 137.872 374.341 136.734 372.624 135.978C370.906 135.223 369.039 134.87 367.164 134.946C365.269 134.896 363.387 135.256 361.645 136.002C359.903 136.747 358.343 137.861 357.071 139.266C354.385 142.226 352.946 146.109 353.055 150.105Z" fill="#1D1D1B"/>
<path d="M447.296 128.324V172.064C447.296 172.451 447.144 172.823 446.872 173.099C446.6 173.375 446.23 173.532 445.843 173.537H438.152C437.765 173.532 437.396 173.375 437.124 173.099C436.852 172.823 436.699 172.451 436.699 172.064V167.603H436.396C434.52 170.029 432.098 171.978 429.328 173.293C426.558 174.608 423.516 175.252 420.451 175.172C417.552 175.156 414.687 174.558 412.024 173.414C409.362 172.269 406.956 170.602 404.949 168.512C400.374 164.098 398.086 157.989 398.086 150.184C397.96 146.921 398.49 143.665 399.644 140.611C400.799 137.556 402.554 134.765 404.808 132.401C406.911 130.165 409.46 128.395 412.29 127.206C415.12 126.017 418.169 125.435 421.238 125.498C424.221 125.456 427.17 126.142 429.829 127.496C432.487 128.85 434.776 130.832 436.497 133.269H436.699V128.404C436.699 128.019 436.852 127.649 437.125 127.377C437.397 127.104 437.767 126.951 438.152 126.951H445.843C446.215 126.95 446.572 127.092 446.843 127.348C447.113 127.603 447.275 127.952 447.296 128.324V128.324ZM409.268 150.103C409.175 154.052 410.467 157.908 412.922 161.003C414.182 162.534 415.785 163.745 417.603 164.537C419.42 165.33 421.398 165.682 423.377 165.565C425.202 165.566 427.007 165.182 428.673 164.437C430.339 163.693 431.829 162.605 433.046 161.245C434.401 159.794 435.455 158.089 436.148 156.229C436.841 154.369 437.159 152.39 437.083 150.406C437.262 146.28 435.853 142.242 433.147 139.122C431.94 137.72 430.439 136.6 428.751 135.843C427.062 135.086 425.227 134.71 423.377 134.742C421.39 134.633 419.405 134.988 417.58 135.78C415.754 136.572 414.139 137.779 412.861 139.304C410.436 142.372 409.164 146.194 409.268 150.103V150.103Z" fill="#1D1D1B"/>
<path d="M460.028 194.511V128.648C460.033 128.175 460.225 127.724 460.561 127.391C460.897 127.058 461.351 126.872 461.824 126.872H468.848C469.32 126.872 469.771 127.059 470.104 127.392C470.438 127.725 470.625 128.177 470.625 128.648V132.806H470.927C472.867 130.439 475.32 128.544 478.1 127.264C480.88 125.984 483.914 125.353 486.974 125.419C489.942 125.383 492.884 125.984 495.6 127.182C498.316 128.379 500.743 130.146 502.718 132.362C507.16 137.258 509.501 143.702 509.238 150.307C509.465 156.889 507.069 163.293 502.577 168.109C500.53 170.347 498.033 172.125 495.25 173.329C492.467 174.533 489.461 175.134 486.429 175.093C483.475 175.181 480.542 174.567 477.871 173.3C475.201 172.033 472.87 170.15 471.069 167.807H470.766V194.511C470.766 194.984 470.58 195.438 470.247 195.774C469.914 196.111 469.463 196.302 468.99 196.308H461.865C461.625 196.313 461.387 196.27 461.165 196.183C460.942 196.095 460.739 195.963 460.568 195.796C460.397 195.629 460.261 195.429 460.168 195.208C460.076 194.987 460.028 194.751 460.028 194.511V194.511ZM498.055 150.105C498.156 146.179 496.845 142.348 494.362 139.306C493.085 137.813 491.481 136.634 489.675 135.86C487.868 135.086 485.908 134.739 483.946 134.845C480.92 134.815 477.979 135.843 475.63 137.752C472.439 140.75 470.52 144.858 470.268 149.229C470.017 153.601 471.452 157.902 474.278 161.247C475.502 162.625 477.007 163.724 478.693 164.469C480.378 165.214 482.205 165.588 484.047 165.566C486.01 165.665 487.967 165.298 489.76 164.495C491.553 163.691 493.13 162.474 494.362 160.944C496.802 157.902 498.108 154.105 498.055 150.206V150.105Z" fill="#1D1D1B"/>
<path d="M564.765 128.588V171.723C564.765 172.179 564.585 172.618 564.264 172.943C563.943 173.268 563.506 173.453 563.049 173.458H555.965C555.508 173.453 555.071 173.268 554.75 172.943C554.429 172.618 554.249 172.179 554.249 171.723V167.524H553.946C552.07 169.95 549.648 171.899 546.878 173.214C544.107 174.529 541.066 175.173 538 175.093C535.102 175.077 532.237 174.479 529.574 173.334C526.912 172.19 524.506 170.523 522.499 168.432C517.937 164.019 515.649 157.909 515.636 150.105C515.51 146.842 516.039 143.586 517.194 140.532C518.348 137.477 520.104 134.685 522.357 132.322C524.461 130.086 527.01 128.316 529.84 127.127C532.67 125.938 535.718 125.356 538.788 125.419C541.771 125.377 544.72 126.063 547.378 127.417C550.037 128.771 552.326 130.752 554.047 133.19H554.249V128.588C554.249 128.133 554.43 127.696 554.751 127.374C555.073 127.053 555.51 126.872 555.965 126.872H563.13C563.571 126.893 563.987 127.083 564.291 127.402C564.596 127.722 564.766 128.146 564.765 128.588V128.588ZM526.737 150.105C526.644 154.053 527.936 157.91 530.391 161.004C531.651 162.535 533.255 163.746 535.072 164.539C536.889 165.332 538.867 165.684 540.846 165.566C542.671 165.569 544.476 165.185 546.143 164.441C547.809 163.696 549.299 162.608 550.515 161.247C551.888 159.804 552.961 158.103 553.671 156.242C554.381 154.381 554.715 152.398 554.653 150.407C554.804 146.268 553.359 142.228 550.616 139.124C549.41 137.72 547.909 136.6 546.221 135.842C544.532 135.085 542.697 134.71 540.846 134.744C538.86 134.634 536.875 134.99 535.049 135.782C533.223 136.573 531.608 137.78 530.33 139.306C527.905 142.373 526.633 146.195 526.737 150.105Z" fill="#1D1D1B"/>
<path d="M620.783 128.528V171.804C620.783 172.243 620.609 172.664 620.298 172.975C619.988 173.285 619.567 173.459 619.128 173.459H611.559C611.12 173.459 610.699 173.285 610.389 172.975C610.078 172.664 609.904 172.243 609.904 171.804V155.374C609.904 154.933 609.73 154.51 609.42 154.196C609.11 153.883 608.689 153.704 608.249 153.699H590.083C589.642 153.704 589.221 153.883 588.911 154.196C588.601 154.51 588.427 154.933 588.427 155.374V171.804C588.427 172.243 588.253 172.664 587.943 172.975C587.632 173.285 587.211 173.459 586.772 173.459H579.183C578.744 173.459 578.323 173.285 578.013 172.975C577.702 172.664 577.528 172.243 577.528 171.804V128.528C577.528 128.089 577.702 127.668 578.013 127.358C578.323 127.047 578.744 126.873 579.183 126.873H586.772C587.211 126.873 587.632 127.047 587.943 127.358C588.253 127.668 588.427 128.089 588.427 128.528V142.92C588.427 143.359 588.602 143.78 588.912 144.09C589.223 144.401 589.644 144.575 590.083 144.575H608.249C608.688 144.575 609.109 144.401 609.419 144.09C609.729 143.78 609.904 143.359 609.904 142.92V128.528C609.904 128.089 610.078 127.668 610.389 127.358C610.699 127.047 611.12 126.873 611.559 126.873H619.128C619.567 126.873 619.988 127.047 620.298 127.358C620.609 127.668 620.783 128.089 620.783 128.528V128.528Z" fill="#1D1D1B"/>
<path d="M630.206 150.102C630.115 146.811 630.705 143.536 631.938 140.483C633.171 137.43 635.021 134.665 637.372 132.36C642.072 127.649 648.451 124.998 655.106 124.99C661.76 124.983 668.145 127.619 672.856 132.319C677.567 137.019 680.218 143.399 680.225 150.053C680.233 156.708 677.597 163.093 672.897 167.804C668.162 172.458 661.794 175.074 655.155 175.093C648.516 175.112 642.133 172.532 637.372 167.905C635.028 165.582 633.183 162.805 631.951 159.743C630.719 156.682 630.125 153.401 630.206 150.102ZM645.102 139.222C642.505 142.237 641.149 146.126 641.308 150.102C641.161 154.138 642.612 158.069 645.345 161.042C646.604 162.41 648.133 163.502 649.835 164.248C651.537 164.995 653.376 165.381 655.235 165.381C657.094 165.381 658.933 164.995 660.635 164.248C662.338 163.502 663.867 162.41 665.126 161.042C667.776 158.028 669.17 154.113 669.021 150.102C669.134 146.157 667.783 142.31 665.226 139.303C663.929 137.93 662.364 136.836 660.629 136.088C658.893 135.341 657.024 134.955 655.134 134.955C653.245 134.955 651.375 135.341 649.64 136.088C647.904 136.836 646.34 137.93 645.042 139.303L645.102 139.222Z" fill="#1D1D1B"/>
<path d="M729.892 128.024V172.309C729.892 172.614 729.771 172.907 729.555 173.123C729.34 173.338 729.047 173.459 728.742 173.459H720.143C719.84 173.454 719.55 173.331 719.335 173.117C719.121 172.902 718.998 172.612 718.993 172.309V151.175H718.811C717.476 153.487 715.54 155.394 713.209 156.694C710.878 157.995 708.238 158.641 705.57 158.563C703.296 158.625 701.037 158.193 698.946 157.297C696.855 156.402 694.983 155.064 693.459 153.376C690.284 149.904 688.696 144.696 688.696 137.753V128.024C688.696 127.718 688.817 127.426 689.033 127.21C689.249 126.994 689.541 126.873 689.846 126.873H698.445C698.75 126.873 699.043 126.994 699.258 127.21C699.474 127.426 699.595 127.718 699.595 128.024V137.087C699.398 140.177 700.252 143.243 702.018 145.786C702.813 146.796 703.838 147.601 705.007 148.134C706.176 148.668 707.455 148.915 708.739 148.854C710.173 148.915 711.602 148.638 712.91 148.046C714.218 147.453 715.368 146.562 716.268 145.443C718.297 142.584 719.274 139.111 719.033 135.613V128.024C719.033 127.718 719.154 127.426 719.37 127.21C719.586 126.994 719.878 126.873 720.184 126.873H728.782C728.931 126.876 729.077 126.908 729.213 126.967C729.349 127.026 729.472 127.111 729.576 127.218C729.679 127.325 729.76 127.451 729.814 127.589C729.868 127.728 729.895 127.875 729.892 128.024V128.024Z" fill="#1D1D1B"/>
<path d="M742.531 172.305V128.02C742.531 127.715 742.652 127.422 742.868 127.206C743.084 126.991 743.377 126.869 743.682 126.869H752.28C752.586 126.869 752.878 126.991 753.094 127.206C753.31 127.422 753.431 127.715 753.431 128.02V144.612C753.416 144.853 753.478 145.092 753.609 145.295C753.74 145.498 753.932 145.653 754.158 145.739C754.383 145.825 754.63 145.836 754.863 145.771C755.095 145.706 755.301 145.569 755.449 145.379L772.586 127.213C772.688 127.094 772.815 127 772.959 126.937C773.102 126.874 773.257 126.844 773.414 126.849H783.001C783.226 126.842 783.449 126.902 783.64 127.022C783.83 127.142 783.981 127.316 784.072 127.522C784.163 127.728 784.191 127.957 784.151 128.178C784.111 128.4 784.006 128.605 783.849 128.767L765.562 148.164C765.373 148.375 765.269 148.648 765.269 148.931C765.269 149.214 765.373 149.487 765.562 149.698L784.636 171.538C784.778 171.705 784.87 171.909 784.9 172.126C784.931 172.343 784.898 172.564 784.807 172.764C784.716 172.963 784.57 173.132 784.386 173.251C784.202 173.37 783.987 173.434 783.768 173.436H773.575C773.411 173.431 773.249 173.393 773.099 173.323C772.95 173.254 772.817 173.155 772.707 173.032L755.51 153.009C755.362 152.82 755.158 152.684 754.928 152.619C754.698 152.554 754.453 152.563 754.229 152.646C754.004 152.729 753.812 152.882 753.679 153.081C753.547 153.28 753.481 153.516 753.491 153.756V172.285C753.486 172.589 753.363 172.878 753.149 173.093C752.934 173.308 752.644 173.43 752.341 173.436H743.682C743.382 173.431 743.095 173.311 742.881 173.1C742.667 172.89 742.542 172.605 742.531 172.305V172.305Z" fill="#1D1D1B"/>
<path d="M793.017 171.74V128.02C793.014 127.868 793.042 127.717 793.099 127.576C793.156 127.435 793.24 127.307 793.348 127.2C793.455 127.092 793.583 127.008 793.724 126.951C793.865 126.894 794.015 126.866 794.167 126.869H802.382C802.533 126.869 802.681 126.899 802.82 126.957C802.958 127.015 803.084 127.1 803.189 127.207C803.294 127.314 803.377 127.441 803.433 127.581C803.488 127.72 803.515 127.869 803.513 128.02V144.753C803.513 150.526 803.419 155.296 803.23 159.064H803.412C805.379 155.769 807.522 152.582 809.831 149.516L826.321 127.313C826.428 127.167 826.567 127.049 826.729 126.968C826.891 126.887 827.069 126.846 827.25 126.849H835.142C835.294 126.846 835.445 126.874 835.585 126.931C835.726 126.988 835.854 127.072 835.961 127.18C836.069 127.287 836.153 127.415 836.21 127.556C836.267 127.697 836.295 127.847 836.292 127.999V172.285C836.292 172.59 836.171 172.882 835.955 173.098C835.74 173.314 835.447 173.435 835.142 173.435H826.927C826.625 173.43 826.338 173.306 826.126 173.091C825.915 172.876 825.796 172.586 825.796 172.285V155.632C825.796 149.859 825.891 145.062 826.079 141.241H825.897C824.848 143.111 822.708 146.287 819.479 150.768L803.149 172.729C802.993 172.947 802.787 173.124 802.548 173.247C802.31 173.37 802.045 173.435 801.777 173.435H794.732C794.281 173.435 793.848 173.257 793.526 172.94C793.205 172.622 793.022 172.191 793.017 171.74V171.74Z" fill="#1D1D1B"/>
<path d="M181.502 286.49L180.251 302.759C180.248 304.268 179.752 305.736 178.838 306.937C178.399 307.377 177.872 307.718 177.29 307.937C176.709 308.157 176.087 308.249 175.467 308.209C174.897 308.212 174.33 308.116 173.792 307.926V305.363C174.237 305.527 174.711 305.596 175.185 305.565C175.466 305.584 175.749 305.54 176.011 305.435C176.273 305.33 176.508 305.167 176.699 304.959C177.112 304.291 177.335 303.524 177.344 302.739L178.798 283.785H194.098V308.007H191.151V286.49H181.502Z" fill="#1D1D1B"/>
<path d="M225.461 308.774C223.594 308.799 221.741 308.449 220.011 307.744C218.509 307.118 217.165 306.167 216.075 304.959C215.099 303.826 214.309 302.545 213.734 301.164C213.187 299.777 212.86 298.313 212.765 296.825H209.394V308.007H206.447V283.785H209.394V294.1H212.826C213.208 291.05 214.677 288.241 216.963 286.187C219.459 284.031 222.677 282.895 225.973 283.008C229.27 283.12 232.402 284.472 234.746 286.793C237.068 289.241 238.336 292.502 238.278 295.876C238.31 297.567 237.999 299.247 237.364 300.815C236.73 302.383 235.784 303.807 234.584 304.999C233.408 306.226 231.99 307.195 230.419 307.845C228.849 308.494 227.16 308.811 225.461 308.774ZM215.672 295.896C215.626 297.243 215.851 298.585 216.333 299.843C216.815 301.102 217.544 302.251 218.477 303.223C219.385 304.15 220.468 304.886 221.664 305.388C222.86 305.89 224.144 306.149 225.441 306.149C226.738 306.149 228.022 305.89 229.218 305.388C230.413 304.886 231.497 304.15 232.405 303.223C233.341 302.253 234.074 301.104 234.559 299.846C235.045 298.587 235.273 297.244 235.23 295.896C235.315 293.188 234.329 290.555 232.485 288.569C231.59 287.604 230.498 286.843 229.282 286.338C228.066 285.833 226.756 285.595 225.441 285.642C224.141 285.612 222.85 285.855 221.651 286.356C220.451 286.857 219.37 287.604 218.477 288.549C217.542 289.523 216.811 290.676 216.329 291.938C215.847 293.2 215.624 294.546 215.672 295.896Z" fill="#1D1D1B"/>
<path d="M249.361 283.804H262.622V286.488H252.308V294.118H256.345C258.424 294.037 260.469 294.671 262.138 295.915C262.894 296.52 263.494 297.298 263.887 298.183C264.28 299.068 264.456 300.034 264.398 301.001C264.449 301.976 264.271 302.949 263.878 303.843C263.486 304.737 262.89 305.526 262.138 306.148C260.485 307.428 258.434 308.086 256.345 308.005H249.361V283.804ZM261.31 301.001C261.342 300.417 261.234 299.835 260.995 299.301C260.757 298.767 260.394 298.298 259.937 297.933C258.799 297.122 257.416 296.73 256.022 296.823H252.308V305.361H256.526C257.825 305.459 259.11 305.038 260.099 304.19C260.514 303.776 260.834 303.276 261.036 302.725C261.238 302.174 261.318 301.586 261.27 301.001H261.31Z" fill="#1D1D1B"/>
<path d="M275.401 283.804H278.348V298.236C278.348 300.759 278.348 302.475 278.348 303.383C278.772 302.616 280.367 299.951 283.455 295.43L291.165 283.804H293.931V308.025H290.984V293.533C290.984 291.918 290.984 290.222 290.984 288.466C290.58 289.233 288.864 291.857 285.877 296.379L278.167 308.025H275.401V283.804Z" fill="#1D1D1B"/>
<path d="M328.461 283.804L331.125 308.025H328.239L326.866 293.896C326.644 291.555 326.462 289.415 326.301 287.477H326.18C325.736 288.931 325.049 291.09 324.161 293.936L319.438 308.066H316.895L312.172 293.573C310.961 289.859 310.315 287.841 310.153 287.518H310.012C309.85 289.9 309.669 291.918 309.487 293.573L307.993 308.086H305.147L307.953 283.864H311.546L316.794 299.447C317.311 300.895 317.749 302.371 318.106 303.867H318.247C318.53 302.717 318.994 301.243 319.6 299.447L324.888 283.864L328.461 283.804Z" fill="#1D1D1B"/>
<path d="M339.986 308.007L349.857 283.785H352.481L362.068 308.007H358.839L356.356 301.467H345.638L343.115 308.007H339.986ZM349.251 292.061L346.627 298.843H355.367L352.803 292.041C352.178 290.345 351.613 288.73 351.148 287.136H351.007C350.523 288.529 349.957 290.184 349.211 292.061H349.251Z" fill="#1D1D1B"/>
<path d="M369.598 308.006L377.227 297.611C375.653 297.329 374.226 296.509 373.19 295.289C372.119 294.078 371.542 292.507 371.576 290.889C371.565 289.966 371.738 289.049 372.084 288.194C372.431 287.338 372.944 286.559 373.594 285.903C374.434 285.167 375.414 284.608 376.475 284.261C377.537 283.914 378.658 283.786 379.771 283.885H386.754V308.107H383.807V298.014H380.578L373.271 308.107L369.598 308.006ZM374.664 290.889C374.644 291.46 374.745 292.029 374.96 292.557C375.176 293.086 375.502 293.563 375.915 293.957C376.391 294.39 376.949 294.722 377.556 294.934C378.163 295.146 378.806 295.232 379.448 295.188H383.848V286.489H379.488C378.194 286.401 376.915 286.813 375.915 287.639C375.484 288.058 375.149 288.566 374.933 289.127C374.717 289.688 374.625 290.289 374.664 290.889Z" fill="#1D1D1B"/>
<path d="M430.07 308.007L418.06 295.795V308.007H415.113V283.785H418.06V295.533L429.747 283.785H433.582L421.613 295.533L434.066 307.987L430.07 308.007Z" fill="#1D1D1B"/>
<path d="M460.085 283.804L451.668 303.666C450.376 306.693 448.56 308.207 446.238 308.207C445.739 308.227 445.24 308.159 444.765 308.005V305.522C445.153 305.629 445.554 305.676 445.956 305.664C446.539 305.683 447.112 305.513 447.591 305.179C448.163 304.697 448.595 304.069 448.842 303.363L450.013 300.618L441.031 283.804H444.321L450.376 295.471C450.766 296.192 451.103 296.941 451.385 297.711V297.711C451.385 297.469 451.769 296.702 452.314 295.41L456.997 283.804H460.085Z" fill="#1D1D1B"/>
<path d="M474.283 286.49L473.052 302.759C473.039 304.267 472.544 305.731 471.639 306.937C471.199 307.376 470.671 307.716 470.09 307.936C469.509 308.155 468.888 308.248 468.268 308.209C467.698 308.212 467.131 308.116 466.593 307.926V305.363C467.031 305.526 467.499 305.595 467.965 305.565C468.247 305.584 468.529 305.54 468.791 305.435C469.053 305.33 469.289 305.167 469.479 304.959C469.9 304.294 470.131 303.526 470.145 302.739L471.599 283.785H486.898V308.007H483.951V286.49H474.283Z" fill="#1D1D1B"/>
<path d="M499.247 283.804H502.194V298.236C502.194 300.759 502.194 302.475 502.194 303.383C502.618 302.616 504.313 299.951 507.301 295.43L514.991 283.804H517.756V308.025H514.809V293.533C514.809 291.918 514.809 290.222 514.809 288.466C514.426 289.233 512.791 291.857 509.703 296.379L502.012 308.025H499.247V283.804Z" fill="#1D1D1B"/>
<path d="M546.359 308.007V296.824H533.057V308.007H530.11V283.785H533.057V294.1H546.359V283.785H549.306V308.007H546.359Z" fill="#1D1D1B"/>
<path d="M559.292 308.007L569.142 283.785H571.766L581.354 308.007H578.165L575.682 301.467H564.964L562.441 308.007H559.292ZM568.537 292.061L565.913 298.843H574.652L572.109 292.041C571.483 290.345 570.918 288.73 570.454 287.136H570.313C569.848 288.529 569.283 290.184 568.537 292.061V292.061Z" fill="#1D1D1B"/>
<path d="M591.333 308.003V283.781H598.357C600.661 283.658 602.938 284.32 604.816 285.658C605.635 286.326 606.283 287.18 606.704 288.15C607.125 289.119 607.309 290.175 607.238 291.229C607.298 292.263 607.128 293.296 606.741 294.256C606.354 295.216 605.758 296.078 604.998 296.78C603.028 298.273 600.579 298.991 598.115 298.799H594.32V308.023L591.333 308.003ZM604.211 291.229C604.246 290.577 604.142 289.924 603.905 289.315C603.668 288.706 603.305 288.155 602.838 287.697C601.644 286.751 600.138 286.29 598.62 286.405H594.32V296.033H598.539C602.394 296.114 604.211 294.519 604.211 291.229Z" fill="#1D1D1B"/>
<path d="M617.582 283.804H620.549V298.236C620.549 300.766 620.549 302.481 620.549 303.383C620.973 302.616 622.689 299.951 625.656 295.43L633.366 283.804H636.131V308.025H633.185V293.533C633.185 291.918 633.185 290.222 633.185 288.466C632.781 289.233 631.166 291.857 628.078 296.379L620.367 308.025H617.602L617.582 283.804Z" fill="#1D1D1B"/>
<path d="M646.052 308.006L653.702 297.611C652.128 297.329 650.7 296.509 649.665 295.289C648.593 294.078 648.017 292.507 648.05 290.889C648.04 289.966 648.212 289.049 648.559 288.194C648.905 287.338 649.419 286.559 650.069 285.903C650.908 285.167 651.889 284.608 652.95 284.261C654.012 283.914 655.133 283.786 656.245 283.885H663.229V308.107H660.323V298.014H657.093L649.786 308.107L646.052 308.006ZM651.139 290.889C651.116 291.458 651.214 292.026 651.426 292.555C651.638 293.084 651.96 293.562 652.37 293.957C652.849 294.391 653.41 294.723 654.021 294.935C654.631 295.146 655.278 295.233 655.922 295.188H660.323V286.489H655.963C654.662 286.402 653.378 286.813 652.37 287.639C651.943 288.06 651.611 288.568 651.399 289.129C651.186 289.69 651.097 290.291 651.139 290.889V290.889Z" fill="#1D1D1B"/>
<path fill-rule="evenodd" clip-rule="evenodd" d="M695.36 303.345C695.858 302.948 696.238 302.422 696.458 301.824C696.679 301.226 696.732 300.579 696.611 299.954C696.369 298.723 695.461 296.522 695.461 295.796C695.461 295.069 696.369 292.869 696.611 291.618C696.732 290.992 696.679 290.345 696.458 289.748C696.238 289.15 695.858 288.624 695.36 288.226C694.851 287.852 694.235 287.654 693.604 287.661V287.661C689.93 287.661 685.53 292.889 685.53 295.735C685.53 298.622 689.97 303.809 693.604 303.809C694.223 303.846 694.839 303.683 695.36 303.345V303.345Z" fill="#E52729"/>
<path fill-rule="evenodd" clip-rule="evenodd" d="M141.642 303.345C141.144 302.948 140.764 302.422 140.544 301.824C140.323 301.226 140.27 300.579 140.391 299.954C140.633 298.723 141.541 296.522 141.541 295.796C141.541 295.069 140.633 292.869 140.391 291.618C140.27 290.992 140.323 290.345 140.544 289.748C140.764 289.15 141.144 288.624 141.642 288.226C142.151 287.852 142.767 287.654 143.398 287.661V287.661C147.072 287.661 151.472 292.889 151.472 295.735C151.472 298.622 147.032 303.809 143.398 303.809C142.778 303.846 142.163 303.683 141.642 303.345V303.345Z" fill="#E52729"/>
</svg>
