<svg width="200" height="200" viewBox="0 0 200 200" fill="none" xmlns="http://www.w3.org/2000/svg">
<path d="M76.3103 173.095V147.539C76.3101 141.039 81.6095 135.757 88.1753 135.713H112.226C118.823 135.713 124.171 141.008 124.171 147.539V147.539V173.174C124.17 178.693 128.619 183.204 134.192 183.333H150.226C166.21 183.333 179.167 170.506 179.167 154.682V154.682V81.982C179.081 75.757 176.129 69.9113 171.15 66.1087L116.315 22.3776C106.708 14.7631 93.0519 14.7631 83.4453 22.3776L28.8504 66.188C23.8523 69.9753 20.8951 75.8306 20.8335 82.0614V154.682C20.8335 170.506 33.7908 183.333 49.7744 183.333H65.8082C71.5198 183.333 76.15 178.75 76.15 173.095V173.095" stroke="white" stroke-width="10" stroke-linecap="round" stroke-linejoin="round"/>
</svg>
