<svg width="257" height="75" viewBox="0 0 257 75" fill="none" xmlns="http://www.w3.org/2000/svg">
<g filter="url(#filter0_b_11_2643)">
<path d="M246.664 74.1035H9.48709C4.26919 74.1035 0 69.9351 0 64.8404V9.26174C0 4.16703 4.26919 -0.00137329 9.48709 -0.00137329H246.664C251.882 -0.00137329 256.151 4.16703 256.151 9.26174V64.8404C256.151 69.9351 251.882 74.1035 246.664 74.1035Z" fill="#F4F4F4" fill-opacity="0.2"/>
<path d="M9.48709 73.6035H246.664C251.617 73.6035 255.651 69.6478 255.651 64.8404V9.26174C255.651 4.45437 251.617 0.498627 246.664 0.498627H9.48709C4.534 0.498627 0.5 4.45437 0.5 9.26174V64.8404C0.5 69.6478 4.534 73.6035 9.48709 73.6035Z" stroke="white"/>
</g>
<path d="M203.521 45.2998H207.063V21.8458H203.521V45.2998ZM235.422 30.2944L231.362 40.4629H231.241L227.027 30.2944H223.212L229.531 44.5067L225.928 52.4122H229.624L239.361 30.2944H235.422ZM215.337 42.6358C214.175 42.6358 212.558 42.0627 212.558 40.6439C212.558 38.8337 214.574 38.1397 216.313 38.1397C217.871 38.1397 218.602 38.4716 219.549 38.9246C219.274 41.0968 217.381 42.6358 215.337 42.6358ZM215.764 29.7813C213.2 29.7813 210.544 30.8982 209.445 33.3724L212.589 34.6696C213.26 33.3724 214.511 32.9495 215.825 32.9495C217.656 32.9495 219.518 34.0364 219.549 35.9675V36.2086C218.907 35.8465 217.535 35.3035 215.855 35.3035C212.467 35.3035 209.016 37.1436 209.016 40.5837C209.016 43.7219 211.795 45.7438 214.908 45.7438C217.29 45.7438 218.602 44.6878 219.427 43.4508H219.549V45.2609H222.967V36.2686C222.967 32.1053 219.824 29.7813 215.764 29.7813ZM193.875 33.1495H188.838V25.1101H193.875C196.523 25.1101 198.027 27.277 198.027 29.1297C198.027 30.9473 196.523 33.1495 193.875 33.1495ZM193.784 21.8458H185.298V45.2998H188.838V36.4138H193.784C197.71 36.4138 201.568 33.6047 201.568 29.1297C201.568 24.6549 197.71 21.8458 193.784 21.8458ZM147.508 42.6401C145.061 42.6401 143.012 40.6152 143.012 37.834C143.012 35.0236 145.061 32.9679 147.508 32.9679C149.923 32.9679 151.819 35.0236 151.819 37.834C151.819 40.6152 149.923 42.6401 147.508 42.6401ZM151.574 31.6077H151.452C150.657 30.671 149.128 29.8246 147.201 29.8246C143.165 29.8246 139.465 33.3306 139.465 37.834C139.465 42.3075 143.165 45.7834 147.201 45.7834C149.128 45.7834 150.657 44.9369 151.452 43.9703H151.574V45.1187C151.574 48.1719 149.923 49.804 147.263 49.804C145.092 49.804 143.746 48.262 143.195 46.9626L140.107 48.232C140.994 50.3477 143.349 52.9473 147.263 52.9473C151.422 52.9473 154.938 50.5287 154.938 44.635V30.3083H151.574V31.6077ZM157.384 45.2998H160.931V21.8451H157.384V45.2998ZM166.16 37.5622C166.069 34.479 168.576 32.9077 170.38 32.9077C171.788 32.9077 172.98 33.6024 173.376 34.6007L166.16 37.5622ZM177.169 34.9026C176.497 33.1188 174.447 29.8246 170.258 29.8246C166.099 29.8246 162.644 33.0587 162.644 37.804C162.644 42.2775 166.069 45.7834 170.655 45.7834C174.356 45.7834 176.497 43.5467 177.383 42.2473L174.631 40.4334C173.714 41.7636 172.46 42.6401 170.655 42.6401C168.851 42.6401 167.567 41.8238 166.741 40.2224L177.535 35.8091L177.169 34.9026ZM91.1706 32.273V35.6581H99.3655C99.1208 37.5622 98.4787 38.9524 97.5001 39.9198C96.3079 41.0989 94.4425 42.3983 91.1706 42.3983C86.1249 42.3983 82.1805 38.3785 82.1805 33.3914C82.1805 28.4042 86.1249 24.3838 91.1706 24.3838C93.8922 24.3838 95.8793 25.442 97.3473 26.8022L99.7629 24.4146C97.7143 22.4797 94.9925 20.9987 91.1706 20.9987C84.2595 20.9987 78.4497 26.5603 78.4497 33.3914C78.4497 40.2224 84.2595 45.7834 91.1706 45.7834C94.9014 45.7834 97.7144 44.575 99.9157 42.3075C102.179 40.0708 102.882 36.9275 102.882 34.3889C102.882 33.6024 102.821 32.8777 102.698 32.273H91.1706ZM112.199 42.6401C109.752 42.6401 107.642 40.6453 107.642 37.804C107.642 34.9326 109.752 32.9679 112.199 32.9679C114.645 32.9679 116.755 34.9326 116.755 37.804C116.755 40.6453 114.645 42.6401 112.199 42.6401ZM112.199 29.8246C107.734 29.8246 104.095 33.1795 104.095 37.804C104.095 42.3983 107.734 45.7834 112.199 45.7834C116.663 45.7834 120.302 42.3983 120.302 37.804C120.302 33.1795 116.663 29.8246 112.199 29.8246ZM129.876 42.6401C127.43 42.6401 125.32 40.6453 125.32 37.804C125.32 34.9326 127.43 32.9679 129.876 32.9679C132.322 32.9679 134.432 34.9326 134.432 37.804C134.432 40.6453 132.322 42.6401 129.876 42.6401ZM129.876 29.8246C125.411 29.8246 121.773 33.1795 121.773 37.804C121.773 42.3983 125.411 45.7834 129.876 45.7834C134.34 45.7834 137.979 42.3983 137.979 37.804C137.979 33.1795 134.34 29.8246 129.876 29.8246Z" fill="white"/>
<path d="M19.0976 59.2188L18.9566 59.0854C18.4042 58.5077 18.0781 57.6107 18.0781 56.4492V56.7225V15.2298C18.0781 15.2261 18.0781 15.2233 18.0781 15.2203C18.0781 15.2238 18.0781 15.2268 18.0781 15.2306V15.5047C18.0781 14.2469 18.4583 13.2995 19.0953 12.7314L42.612 35.9758L19.0976 59.2188ZM18.0781 15.218C18.0781 15.1147 18.081 15.0143 18.0863 14.9154C18.081 15.0135 18.0781 15.1147 18.0781 15.218ZM18.0863 14.9109C18.0863 14.9096 18.0863 14.9081 18.0869 14.9066C18.0863 14.9081 18.0863 14.9096 18.0863 14.9109ZM18.0869 14.8978C18.0869 14.897 18.0869 14.8963 18.0869 14.8955C18.0869 14.8963 18.0869 14.897 18.0869 14.8978Z" fill="white"/>
<path d="M53.2429 44.0107L53.4217 43.9104L62.7088 38.6945C63.5942 38.197 64.1843 37.5938 64.4787 36.9555C64.1851 37.5938 63.5948 38.1977 62.7088 38.6953L53.4217 43.9111L53.2429 44.0107ZM53.2452 43.7359L45.4053 35.9852L53.2445 28.2358L62.7088 33.5506C63.9106 34.2256 64.5854 35.0955 64.6981 35.9845C64.6981 35.9852 64.6981 35.9867 64.6981 35.988C64.5854 36.8749 63.9106 37.7456 62.7088 38.4204L53.2452 43.7359Z" fill="white"/>
<path d="M22.177 61.5117C21.5201 61.5117 20.9469 61.3007 20.4999 60.902L20.5007 60.9012C20.9476 61.2999 21.5216 61.5117 22.1785 61.5117C22.2355 61.5117 22.2934 61.5102 22.352 61.5074C22.2926 61.5102 22.234 61.5117 22.177 61.5117ZM22.1778 61.2369C21.5209 61.2376 20.9476 61.0258 20.5007 60.6271V60.6266L44.0151 37.3836L51.8551 45.1343L24.3042 60.6074C23.5419 61.0346 22.8197 61.2369 22.1778 61.2369ZM20.494 60.8969C20.4524 60.8596 20.4116 60.82 20.3716 60.7789L20.494 60.8969Z" fill="white"/>
<path d="M44.0117 34.5938L20.4951 11.3493C20.9421 10.9514 21.5146 10.7403 22.1707 10.7403C22.8144 10.7403 23.5371 10.9433 24.3009 11.3713L51.8509 26.8444L44.0117 34.5938ZM52.0282 26.6693L24.3009 11.0973C23.5371 10.6692 22.8144 10.4662 22.1707 10.4662C22.1677 10.4662 22.1656 10.4662 22.1626 10.4662C22.1664 10.4662 22.1692 10.4662 22.1738 10.4662C22.8159 10.4662 23.5379 10.6685 24.3009 11.0966L52.0282 26.6693Z" fill="white"/>
<defs>
<filter id="filter0_b_11_2643" x="-4" y="-4.00098" width="264.151" height="82.1045" filterUnits="userSpaceOnUse" color-interpolation-filters="sRGB">
<feFlood flood-opacity="0" result="BackgroundImageFix"/>
<feGaussianBlur in="BackgroundImageFix" stdDeviation="2"/>
<feComposite in2="SourceAlpha" operator="in" result="effect1_backgroundBlur_11_2643"/>
<feBlend mode="normal" in="SourceGraphic" in2="effect1_backgroundBlur_11_2643" result="shape"/>
</filter>
</defs>
</svg>
